<svg width="218" height="218" viewBox="0 0 218 218" fill="none" xmlns="http://www.w3.org/2000/svg">
<path d="M143.5 297.5C105.162 297.5 69.1209 282.017 42.0299 253.938C14.9385 225.823 0 188.468 0 148.732C0 108.995 14.9385 71.6409 42.0299 43.5622C69.1559 15.4831 105.162 0 143.5 0C181.838 0 217.879 15.4831 244.97 43.5622C272.061 71.6409 287 108.995 287 148.732C287 188.468 272.061 225.823 244.97 253.902C217.879 282.017 181.838 297.5 143.5 297.5ZM143.5 9.09499C108.992 9.09499 74.4486 22.7014 48.1931 49.9502C-4.3527 104.412 -4.3527 193.052 48.1931 247.549C100.739 302.011 186.261 302.011 238.842 247.549C291.387 193.088 291.387 104.448 238.842 49.9502C212.551 22.7014 178.043 9.09499 143.5 9.09499Z" fill="#EAC57E"/>
<path d="M177.405 293.91C151.64 301.065 124.671 297.981 100.929 285.071C75.8918 271.474 57.4518 248.534 49.0327 220.57C40.6047 192.57 43.2061 162.891 56.3493 136.896C57.0857 135.421 57.8646 133.972 58.6861 132.548C59.8926 130.383 62.5589 129.679 64.6486 130.93C66.7384 132.18 67.4168 134.944 66.2103 137.11C65.4715 138.436 64.7663 139.752 64.0704 141.104C52.0236 164.925 49.6281 192.194 57.3513 217.886C65.0748 243.577 82.005 264.582 104.997 277.103C127.981 289.589 154.324 292.063 179.078 284.067C203.866 276.062 224.132 258.515 236.212 234.684C248.259 210.863 250.655 183.594 242.932 157.902C235.208 132.211 218.278 111.206 195.285 98.685C176.035 88.2262 154.591 84.7657 133.251 88.6744C130.876 89.1097 128.611 87.4598 128.2 85.0332C127.78 82.5717 129.372 80.224 131.713 79.7979C154.973 75.5051 178.339 79.2914 199.312 90.692C224.358 104.324 242.789 127.229 251.208 155.193C259.636 183.192 257.043 212.907 243.891 238.866C230.738 264.825 208.639 283.928 181.659 292.654C180.221 293.09 178.817 293.518 177.405 293.91Z" fill="#EAC57E"/>
</svg>
