<svg width="40" height="40" fill="none" xmlns="http://www.w3.org/2000/svg"><g clip-path="url(#clip0)" fill="#EAC57E"><path d="M39.771 12.892L28.584 1.705a.781.781 0 00-1.105 0L19.91 9.274l-7.565-7.566a.781.781 0 00-1.105 0L.229 12.72a.781.781 0 000 1.105l4.724 4.724c-.165.589-.326 1.065-.46 1.463-.587 1.74-.739 2.474.418 4.612l-.616.617a3.01 3.01 0 000 4.25c.566.567 1.32.878 2.125.878.332 0 .656-.053.96-.155.098.602.378 1.18.841 1.643.566.566 1.321.878 2.126.878.37 0 .73-.066 1.067-.193.105.58.382 1.136.83 1.584.566.566 1.321.878 2.126.878.465 0 .914-.104 1.32-.302a2.996 2.996 0 002.931 2.344c.77 0 1.54-.292 2.125-.879l.913-.912 2.392 2.392c.566.566 1.32.877 2.125.877.805 0 1.56-.311 2.126-.877a3.011 3.011 0 00.575-3.445 2.977 2.977 0 001.466-.806c.566-.566.878-1.321.878-2.126 0-.465-.105-.914-.302-1.32a2.988 2.988 0 001.465-.805c.566-.566.878-1.321.878-2.126 0-.465-.104-.914-.302-1.319a2.99 2.99 0 001.465-.806 3.01 3.01 0 000-4.251l-.65-.65 5.996-5.996a.781.781 0 000-1.105zM6.421 28.806c-.388 0-.75-.15-1.021-.42a1.445 1.445 0 010-2.042l4.227-4.227c.271-.27.633-.42 1.02-.42a1.432 1.432 0 011.441 1.44c0 .388-.149.75-.42 1.021l-3.447 3.447-.78.78c-.271.271-.633.42-1.02.42zm4.946 1.945c-.27.271-.633.42-1.02.42-.388 0-.75-.149-1.02-.42a1.445 1.445 0 01-.001-2.04l3.447-3.448a1.445 1.445 0 012.041 0 1.445 1.445 0 010 2.041l-2.57 2.57-.877.877zm4.023 2.27c-.27.27-.633.42-1.02.42-.388 0-.75-.15-1.02-.42a1.445 1.445 0 01-.001-2.041l2.57-2.57a1.445 1.445 0 012.041 0c.271.27.42.633.42 1.02s-.149.75-.42 1.02l-1.465 1.465-1.105 1.106zm4.251 2.04c-.27.272-.633.42-1.02.42-.388 0-.75-.148-1.02-.42a1.445 1.445 0 010-2.04l1.464-1.466a1.445 1.445 0 012.041 0 1.445 1.445 0 010 2.041l-1.465 1.466zm13.68-11.273a1.445 1.445 0 01-2.042 0l-1.105-1.105a.782.782 0 00-1.105 1.105l1.105 1.105 1.105 1.105a1.445 1.445 0 010 2.04 1.445 1.445 0 01-2.04 0l-1.106-1.104a.781.781 0 00-1.105 1.105l1.105 1.105 1.105 1.105a1.445 1.445 0 010 2.04 1.445 1.445 0 01-2.041 0l-1.105-1.104a.781.781 0 00-1.105 1.105l1.105 1.105 1.105 1.105c.27.27.42.633.42 1.02a1.432 1.432 0 01-1.44 1.44c-.388 0-.75-.148-1.021-.42l-2.465-2.464a3.002 3.002 0 00-2.75-4.5l.002-.146c0-.805-.312-1.56-.878-2.126a3.005 3.005 0 00-2.271-.875 2.985 2.985 0 00-.874-2.27 3.002 3.002 0 00-2.272-.876 2.985 2.985 0 00-.874-2.27 3.01 3.01 0 00-4.252 0L6.066 23.47c-.654-1.292-.521-1.688-.092-2.958.173-.514.389-1.153.608-2a.781.781 0 00-.204-.748l-4.492-4.492 9.907-9.906 8.062 8.062c.305.305.8.305 1.105 0 .27-.27.633-.42 1.02-.42.388 0 .75.15 1.021.42l10.32 10.32a1.445 1.445 0 010 2.04zm-.65-4.901l-8.565-8.564a2.997 2.997 0 00-2.158-.879l6.084-6.083 10.082 10.082-5.444 5.444z"/><path d="M25.647 24.449a.781.781 0 10-1.105 1.104.781.781 0 001.105-1.104z"/></g><defs><clipPath id="clip0"><path fill="#fff" d="M0 0h40v40H0z"/></clipPath></defs></svg>