<svg width="40" height="40" fill="none" xmlns="http://www.w3.org/2000/svg"><path d="M15.313 8.047a.782.782 0 10-.001-1.563.782.782 0 000 1.563zM18.438 8.047h6.25a.781.781 0 100-1.563h-6.25a.781.781 0 100 1.563zM20 28.828c.431 0 .781-.35.781-.781V26.25a.781.781 0 10-1.562 0v1.797c0 .431.35.781.781.781z" fill="#EAC57E"/><path d="M16.094 21.47c-1.17.83-2.774 1.965-4.05 4.15-1.406 2.406-2.125 5.549-2.194 9.59a2.347 2.347 0 00-1.569 2.212v1.797c0 .431.35.781.781.781h21.876c.431 0 .78-.35.78-.781v-1.797c0-1.02-.655-1.89-1.567-2.211-.07-4.042-.789-7.185-2.195-9.591-1.276-2.185-2.88-3.32-4.05-4.15-1.055-.748-1.562-1.133-1.562-1.704 0-1.551 4.428-1.827 6.587-7.536.758-2 1.167-4.502 1.22-7.44a2.347 2.347 0 001.568-2.212V.781A.781.781 0 0030.937 0H9.063a.781.781 0 00-.78.781v1.797c0 1.02.655 1.89 1.568 2.211.052 2.94.461 5.44 1.218 7.44 2.16 5.708 6.588 5.989 6.588 7.537 0 .572-.507.956-1.562 1.704zm14.062 16.968H9.844v-1.016c0-.431.35-.781.781-.781h18.75c.43 0 .781.35.781.78v1.017zm-14.827-3.36c1.355-1.412 2.32-3.125 4.635-3.125h.03c2.385.016 3.32 1.718 4.65 3.125H15.33zm-2.927-23.757c-.6-1.738-.93-3.887-.986-6.4h17.168c-.053 2.353-.346 4.387-.875 6.064l-1.015-.313a9.505 9.505 0 00-7.043.583 7.9 7.9 0 01-5.885.486l-1.364-.42zM9.844 1.563h20.312v1.015c0 .431-.35.781-.781.781h-18.75a.782.782 0 01-.781-.78V1.561zm3.4 11.652l.062.02c2.34.72 4.841.518 7.044-.583a7.94 7.94 0 015.884-.486l.913.28c-1.484 3.22-3.733 4.048-5.132 5.133-.778.522-1.5 1.008-2.015 1.56-.515-.552-1.237-1.038-2.015-1.56-1.28-.993-3.274-1.77-4.74-4.364zm5.856 7.313c.078.138.119.273.119.41v2.187a.781.781 0 101.562 0v-2.188c0-.136.041-.271.12-.409.31.946 1.185 1.567 2.102 2.217 2.162 1.531 5.396 3.824 5.582 12.333h-.687a.777.777 0 00-.378-.098c-2.215 0-2.998-4.56-7.515-4.59h-.041c-4.503 0-5.254 4.688-7.776 4.688h-.773c.186-8.51 3.42-10.802 5.582-12.333.917-.65 1.792-1.27 2.103-2.217z" fill="#EAC57E"/></svg>