<svg width="40" height="40" fill="none" xmlns="http://www.w3.org/2000/svg"><g clip-path="url(#clip0)" fill="#EAC57E"><path d="M32.63 15.987h-14.9a4.489 4.489 0 001.107-2.955 4.514 4.514 0 00-4.509-4.508 4.514 4.514 0 00-4.509 4.508c0 1.13.419 2.163 1.108 2.955H7.37a3.903 3.903 0 00-3.898 3.899v4.6a.78.78 0 101.56 0v-4.6c0-1.29 1.048-2.34 2.338-2.34H29.2c1.29 0 2.338 1.05 2.338 2.34v4.21H23.43a3.903 3.903 0 00-3.898 3.898 3.903 3.903 0 003.898 3.898h8.108v4.21c0 1.29-1.049 2.339-2.338 2.339H7.37a2.342 2.342 0 01-2.339-2.34v-4.605a.78.78 0 10-1.56 0v4.606A3.903 3.903 0 007.37 40h25.26a3.903 3.903 0 003.898-3.898V19.886a3.903 3.903 0 00-3.898-3.899zm-18.302-5.904a2.953 2.953 0 012.95 2.95 2.953 2.953 0 01-2.95 2.949 2.953 2.953 0 01-2.95-2.95 2.953 2.953 0 012.95-2.949zm17.988 7.464h.314c1.29 0 2.339 1.049 2.339 2.339v4.21h-1.871v-4.21c0-.877-.291-1.687-.782-2.34zM21.091 27.994c0-1.29 1.05-2.34 2.34-2.34h11.538v4.679H23.43a2.342 2.342 0 01-2.338-2.34zM32.63 38.44h-.314c.49-.652.782-1.462.782-2.34v-4.21h1.87v4.21c0 1.29-1.048 2.34-2.338 2.34z"/><path d="M23.23 27.214a.786.786 0 00-.551.228.785.785 0 000 1.103.787.787 0 00.552.228.787.787 0 00.551-.228.786.786 0 00.228-.552.786.786 0 00-.228-.55.785.785 0 00-.551-.23zM25.672 10.732a4.514 4.514 0 004.509-4.508 4.514 4.514 0 00-4.51-4.51 4.514 4.514 0 00-4.508 4.51 4.514 4.514 0 004.509 4.508zm0-7.458a2.953 2.953 0 012.95 2.95 2.953 2.953 0 01-2.95 2.95 2.953 2.953 0 01-2.95-2.95 2.953 2.953 0 012.95-2.95zM18.057 7.686a.78.78 0 00.78-.78V.78a.78.78 0 00-1.56 0v6.126c0 .43.35.78.78.78zM14.315 4.99a.78.78 0 00.78-.78V.78a.78.78 0 00-1.56 0v3.43c0 .43.35.78.78.78zM4.251 28.773a.786.786 0 00.552-.228.786.786 0 00.228-.552.784.784 0 00-.78-.78.786.786 0 00-.55.23.786.786 0 00-.23.55.785.785 0 00.78.78z"/></g><defs><clipPath id="clip0"><path fill="#fff" d="M0 0h40v40H0z"/></clipPath></defs></svg>