<svg width="40" height="40" fill="none" xmlns="http://www.w3.org/2000/svg"><g clip-path="url(#clip0)" fill="#EAC57E"><path d="M38.125 24.961V14.368a.78.78 0 00-.425-.688L19.42 4.305a.78.78 0 00-.713 0l-4.994 2.56a.781.781 0 00.713 1.39l4.637-2.377 15.046 7.716H21.272a2.347 2.347 0 00-2.21-1.563 2.346 2.346 0 00-2.343 2.344 2.346 2.346 0 002.343 2.344 2.347 2.347 0 002.21-1.563h12.836l-15.045 7.716-16.57-8.497 5.676-2.91a.781.781 0 00-.713-1.39L.425 13.68a.781.781 0 000 1.39l6.365 3.264v6.72c0 .883.489 1.682 1.275 2.085l9.928 5.092a2.344 2.344 0 002.139 0l9.928-5.092a2.334 2.334 0 001.275-2.085v-6.72l5.227-2.68v9.307a2.661 2.661 0 00-1.874 2.54V35c0 .43.35.78.78.78h3.75c.432 0 .782-.35.782-.78v-7.5c0-1.194-.79-2.205-1.875-2.54zm-19.063-9.805a.782.782 0 11.002-1.564.782.782 0 01-.002 1.564zm10.71 9.898c0 .294-.163.56-.425.695L19.42 30.84a.783.783 0 01-.713 0L8.778 25.75a.778.778 0 01-.425-.695v-5.918l10.353 5.31a.78.78 0 00.713 0l10.353-5.31v5.918zm8.666 9.165H36.25V27.5a1.095 1.095 0 012.188 0v6.719z"/><path d="M10.94 9.946a.786.786 0 00.553-.228.789.789 0 00.229-.553.787.787 0 00-.23-.553.787.787 0 00-.552-.228.787.787 0 00-.552.228.787.787 0 00-.229.553.786.786 0 00.781.781z"/></g><defs><clipPath id="clip0"><path fill="#fff" d="M0 0h40v40H0z"/></clipPath></defs></svg>