<svg width="124" height="124" fill="none" xmlns="http://www.w3.org/2000/svg"><path d="M124 83.918c0-18.074-12.178-33.866-29.352-38.624C93.568 20.136 72.767 0 47.348 0 21.24 0 0 21.24 0 47.348a47.2 47.2 0 006.566 24.066L.174 94.52l23.107-6.39a47.171 47.171 0 0022.012 6.516C50.05 111.821 65.843 124 83.918 124c7.214 0 14.23-1.921 20.395-5.572l19.512 5.397-5.397-19.512A39.937 39.937 0 00124 83.918zm-99.572-3.644L10.595 84.1l3.826-13.834-.872-1.364a39.947 39.947 0 01-6.283-21.555c0-22.102 17.98-40.082 40.082-40.082 22.101 0 40.082 17.98 40.082 40.082 0 22.101-17.98 40.082-40.082 40.082a39.95 39.95 0 01-21.556-6.284l-1.364-.872zm88.977 33.131l-10.264-2.84-1.371.892a32.692 32.692 0 01-17.852 5.277c-14.206 0-26.689-9.185-31.112-22.356C74.56 91.87 91.87 74.56 94.38 52.805c13.17 4.424 22.355 16.907 22.355 31.113a32.692 32.692 0 01-5.277 17.852l-.892 1.371 2.84 10.264z" fill="#EAC57E"/><path d="M43.715 65.633h7.265v7.265h-7.265v-7.265zM54.613 36.328c0 2.063-.84 3.968-2.365 5.363l-8.533 7.81v8.866h7.265v-5.666l6.173-5.65a14.572 14.572 0 004.726-10.723c0-8.013-6.518-14.531-14.531-14.531-8.013 0-14.532 6.518-14.532 14.531h7.266c0-4.006 3.26-7.266 7.266-7.266s7.265 3.26 7.265 7.266z" fill="#EAC57E"/></svg>