<svg width="22" height="22" fill="none" xmlns="http://www.w3.org/2000/svg"><g clip-path="url(#clip0)" fill="#EAC57E"><path d="M20.035 19.643a1.88 1.88 0 001.288-.486l-6.233-6.233-.432.31c-.466.344-.845.612-1.135.804-.291.193-.678.39-1.16.59-.483.2-.933.3-1.351.3h-.024c-.418 0-.868-.1-1.351-.3-.483-.2-.87-.397-1.16-.59-.29-.192-.67-.46-1.136-.804l-.43-.312-6.234 6.235a1.88 1.88 0 001.287.486h18.072zM1.24 8.999A6.509 6.509 0 010 7.931v9.483l5.494-5.494A424.356 424.356 0 001.24 9zM20.772 8.999a362.302 362.302 0 00-4.263 2.924L22 17.414V7.931a6.776 6.776 0 01-1.228 1.068z"/><path d="M20.036 2.357H1.965c-.63 0-1.115.213-1.455.638-.34.426-.51.958-.51 1.596 0 .516.226 1.075.676 1.676.45.602.929 1.074 1.436 1.418.278.197 1.117.78 2.517 1.75a821.368 821.368 0 013.217 2.24l.183.13.338.245c.266.192.487.348.663.466.176.12.389.252.639.4.25.146.485.257.706.33.22.074.425.111.614.111h.024c.188 0 .393-.037.614-.11.22-.074.456-.184.706-.332.25-.147.462-.28.638-.399.176-.118.397-.274.663-.466a87.785 87.785 0 01.522-.375l1.242-.863 4.504-3.127a5.837 5.837 0 001.497-1.51c.4-.589.601-1.207.601-1.853 0-.54-.194-1.003-.583-1.388a1.899 1.899 0 00-1.38-.577z"/></g><defs><clipPath id="clip0"><path fill="#fff" d="M0 0h22v22H0z"/></clipPath></defs></svg>