<svg width="88" height="114" fill="none" xmlns="http://www.w3.org/2000/svg"><path d="M44 0c23.94 0 43.418 19.478 43.418 43.418 0 9.474-2.993 18.476-8.661 26.029l-32.08 43.206c-.08.105-.203.145-.292.238-1.603 1.717-3.917 1.285-5.06-.238-9.237-12.326-26.17-35.347-32.68-44.03l-.005-.011-.04-.054C3.354 61.188.582 52.496.582 43.418.582 19.478 20.06 0 44 0z" fill="#121F35"/><path d="M44 71.616c-7.029 0-13.636-2.89-18.602-8.133-4.967-5.248-7.706-12.222-7.706-19.64 0-7.418 2.739-14.392 7.706-19.634C30.37 18.968 36.97 16.078 44 16.078s13.636 2.89 18.602 8.132c4.967 5.242 7.706 12.216 7.706 19.634 0 7.418-2.739 14.392-7.706 19.633-4.966 5.25-11.573 8.14-18.602 8.14zm0-53.841c-6.326 0-12.66 2.54-17.473 7.627-9.633 10.167-9.633 26.715 0 36.889 9.634 10.167 25.312 10.167 34.952 0 9.633-10.167 9.633-26.715 0-36.889-4.82-5.087-11.146-7.627-17.48-7.627z" fill="#EAC57E"/><path d="M49.812 70.913c-4.798 1.334-9.821.759-14.242-1.647-4.663-2.534-8.097-6.809-9.665-12.02a20.997 20.997 0 011.797-16.403.795.795 0 011.11-.302c.39.234.516.748.292 1.152a19.288 19.288 0 00-1.65 15.053c1.438 4.788 4.591 8.702 8.873 11.035 4.28 2.327 9.186 2.788 13.797 1.298 4.616-1.492 8.39-4.762 10.64-9.203a19.288 19.288 0 001.251-14.308c-1.438-4.788-4.591-8.702-8.873-11.035-3.585-1.95-7.579-2.594-11.553-1.866a.815.815 0 01-.94-.679c-.079-.458.218-.896.654-.975 4.331-.8 8.683-.095 12.589 2.03 4.664 2.54 8.096 6.809 9.664 12.02 1.57 5.218 1.087 10.755-1.362 15.593-2.45 4.837-6.565 8.397-11.59 10.023-.268.082-.53.161-.792.234z" fill="#EAC57E"/></svg>