<svg width="30" height="40" fill="none" xmlns="http://www.w3.org/2000/svg"><path d="M26.2 23.777l.003-.004C28.033 21.297 29 18.347 29 15.234 29 7.372 22.704 1 15 1S1 7.372 1 15.234c0 2.978.893 5.824 2.582 8.238l.006.008.054.072.002.006c1.045 1.416 2.815 3.845 4.729 6.473l.513.704c2.143 2.941 4.401 6.039 5.995 8.198.035.048.079.065.101.067.009 0 .017 0 .027-.004a.225.225 0 00.079-.062h0l.006-.007c.036-.038.07-.069.1-.094L26.2 23.777zM15.312 38.745s0 0 0 0h0z" stroke="#EAC57E" stroke-width="2"/><circle cx="15" cy="15" r="5" stroke="#EAC57E" stroke-width="2"/></svg>