<svg width="49" height="49" fill="none" xmlns="http://www.w3.org/2000/svg"><path d="M47.962 45.041H1.038a1.038 1.038 0 010-2.076h46.924a1.038 1.038 0 010 2.076zm-1.904-4.73a1.038 1.038 0 01-1.038-1.039V16.334H38.03a1.038 1.038 0 010-2.076h8.03c.573 0 1.038.465 1.038 1.038v23.976c0 .574-.465 1.038-1.039 1.038zm-9.005 0a1.038 1.038 0 01-1.038-1.039V27.547a1.038 1.038 0 012.076 0v11.725c0 .574-.465 1.038-1.038 1.038zm-8.369 0a1.038 1.038 0 01-1.038-1.039V27.547a1.038 1.038 0 012.076 0v11.725c0 .574-.464 1.038-1.038 1.038zm-8.368 0a1.038 1.038 0 01-1.038-1.039V27.547a1.038 1.038 0 012.076 0v11.725c0 .574-.465 1.038-1.038 1.038zm-8.369 0a1.038 1.038 0 01-1.038-1.039V27.547a1.038 1.038 0 012.076 0v11.725c0 .574-.465 1.038-1.038 1.038zm-9.005 0a1.038 1.038 0 01-1.038-1.039V15.326v-.03c0-.573.464-1.038 1.038-1.038h8.03a1.038 1.038 0 010 2.076H3.98v22.938c0 .574-.465 1.038-1.038 1.038zm38.715-9.708a1.038 1.038 0 01-1.038-1.038v-2.018a1.038 1.038 0 012.076 0v2.018c0 .573-.465 1.038-1.038 1.038zm-34.312 0a1.038 1.038 0 01-1.038-1.038v-2.018a1.038 1.038 0 012.076 0v2.018c0 .573-.465 1.038-1.038 1.038zm34.312-6.33a1.038 1.038 0 01-1.038-1.038v-2.018a1.038 1.038 0 012.076 0v2.018c0 .573-.465 1.038-1.038 1.038zm-34.312 0a1.038 1.038 0 01-1.038-1.038v-2.018a1.038 1.038 0 012.076 0v2.018c0 .573-.465 1.038-1.038 1.038zm29.708 0H11.947a1.038 1.038 0 010-2.076h25.106a1.038 1.038 0 110 2.076zm0-3.538c-.155 0-.312-.035-.46-.108l-12.205-6.046-11.974 6.043a1.038 1.038 0 01-.935-1.854l11.983-6.048V4.996c0-.573.465-1.038 1.038-1.038h7.504c.573 0 1.038.465 1.038 1.038v3.922c0 .573-.465 1.038-1.038 1.038h-6.466v2.877l11.976 5.934a1.038 1.038 0 01-.461 1.968zM25.538 7.88h5.428V6.034h-5.428V7.88z" fill="#EAC57E"/><path d="M37.053 24.273H11.947a1.038 1.038 0 010-2.076h25.106a1.038 1.038 0 010 2.076zm0-3.538c-.155 0-.312-.035-.46-.108l-12.205-6.046-11.974 6.043a1.038 1.038 0 01-.935-1.854l11.983-6.048V4.996c0-.573.465-1.038 1.038-1.038h7.504c.573 0 1.038.465 1.038 1.038v3.922c0 .573-.465 1.038-1.038 1.038h-6.466v2.877l11.976 5.934a1.038 1.038 0 01-.462 1.968zM25.538 7.88h5.428V6.034h-5.428V7.88z" fill="#EAC57E"/></svg>