<svg width="40" height="40" fill="none" xmlns="http://www.w3.org/2000/svg"><g clip-path="url(#clip0)" fill="#EAC57E"><path d="M38.913 40a.922.922 0 01-.856-.58l-2.299-5.753c-1.18-2.91-2.539-4.379-4.429-4.723l-.48 2.292.665 5.978a.922.922 0 01-.34.82l-1.482 1.19a.921.921 0 01-.577.204h-.526a.921.921 0 01-.577-.203l-1.483-1.192a.92.92 0 01-.338-.82l.665-5.977-.48-2.292c-1.89.344-3.249 1.814-4.432 4.728l-2.334 5.753a.921.921 0 01-1.708-.693l2.335-5.754c1.013-2.494 2.809-5.79 6.764-5.951a.91.91 0 01.105-.006h3.492c.036 0 .07.002.106.006 3.955.16 5.751 3.457 6.764 5.951l2.3 5.759A.92.92 0 0138.913 40zm-10.835-3.086l.774.622.774-.622-.534-4.801h-.48l-.534 4.801zm.458-6.644h.633l.295-1.407H28.24l.295 1.407zM1.087 40a.921.921 0 01-.853-1.268l2.3-5.668c1.024-2.523 2.86-5.878 6.975-5.878h3.05c2.218 0 4.043.986 5.425 2.93.022.033.127.175.254.348.44.6.558.761.596.82a.921.921 0 01-1.533 1.021l-.548-.75c-.137-.187-.25-.34-.272-.372-.637-.897-1.35-1.502-2.179-1.837l-2.524 3.46a.921.921 0 01-1.488 0l-2.524-3.459c-1.438.583-2.543 1.99-3.525 4.41l-2.3 5.668a.922.922 0 01-.854.575zm8.728-10.972l1.219 1.671 1.22-1.67h-2.44zM14.75 40H4.952a.921.921 0 010-1.843h9.798a.921.921 0 010 1.843zm18.292-6.706a.921.921 0 01-.922-.921v-.116a.921.921 0 011.843 0v.116a.921.921 0 01-.921.92zm-22.008-7.46a4.68 4.68 0 01-4.675-4.675 4.683 4.683 0 014.338-4.663h.01l.006-.001h.011l.004-.001h.01l.046-.003.016-.001h.01a.02.02 0 00.004-.001h.02l.005-.001h.014a4.68 4.68 0 01.173-.004h.047a4.655 4.655 0 014.571 3.898 4.68 4.68 0 01-4.61 5.451zm-1.657-6.97a2.83 2.83 0 001.657 5.127 2.837 2.837 0 002.747-2.142 4.664 4.664 0 01-4.404-2.986zm1.773-.535a2.82 2.82 0 002.47 1.675 2.838 2.838 0 00-2.47-1.675zm17.702 7.291a4.737 4.737 0 01-4.731-4.73 4.737 4.737 0 015.702-4.632 4.74 4.74 0 013.76 4.631 4.737 4.737 0 01-4.73 4.732zm-1.637-7.11A2.888 2.888 0 1030 18.238c-.387.498-.87.915-1.425 1.227a.921.921 0 01-1.36-.955zM7.03 15.988a.92.92 0 01-.921-.921V6.764A2.93 2.93 0 019.034 3.84h3.268a.921.921 0 010 1.843H9.034c-.598 0-1.084.486-1.084 1.083v6.73l1.269-.712a.922.922 0 01.45-.117h7.994a.921.921 0 010 1.842H9.91L7.48 15.87a.92.92 0 01-.45.118zm21.828-1.909a.921.921 0 01-.68-.3l-2.837-3.11h-7.45a2.93 2.93 0 01-2.925-2.926V2.926A2.93 2.93 0 0117.89 0h8.96a2.93 2.93 0 012.927 2.926v10.232a.921.921 0 01-.92.921zM17.891 1.843c-.598 0-1.084.486-1.084 1.083v4.817c0 .598.486 1.084 1.084 1.084h7.856c.259 0 .506.109.68.3l1.509 1.653V2.926c0-.597-.487-1.083-1.084-1.083H17.89zm-5.773 7.321h-1.671a.921.921 0 010-1.842h1.671a.921.921 0 010 1.842zM25.243 5.38H21.44a.921.921 0 010-1.843h3.803a.921.921 0 010 1.843z"/><path d="M38.913 40a.922.922 0 01-.856-.58l-2.299-5.753c-1.18-2.91-2.539-4.379-4.429-4.723l-.48 2.292.665 5.978a.922.922 0 01-.34.82l-1.482 1.19a.92.92 0 01-.577.204h-.526a.92.92 0 01-.577-.203l-1.483-1.192a.92.92 0 01-.338-.82l.665-5.977-.48-2.292c-1.89.344-3.249 1.814-4.432 4.728l-2.334 5.753a.921.921 0 01-1.708-.693l2.335-5.754c1.013-2.494 2.809-5.79 6.764-5.951a.932.932 0 01.105-.006h3.492c.036 0 .07.002.106.006 3.955.16 5.751 3.457 6.764 5.951l2.3 5.759A.92.92 0 0138.913 40zm-10.835-3.086l.774.622.774-.622-.534-4.801h-.48l-.534 4.801zm.458-6.644h.633l.295-1.407H28.24l.295 1.407zM1.087 40a.921.921 0 01-.853-1.268l2.3-5.668c1.024-2.523 2.86-5.878 6.975-5.878h3.05c2.218 0 4.043.986 5.425 2.93.022.033.127.175.254.348.44.6.558.761.596.82a.921.921 0 01-1.533 1.021l-.548-.75c-.137-.187-.25-.34-.272-.372-.637-.897-1.35-1.502-2.179-1.837l-2.524 3.46a.921.921 0 01-1.488 0l-2.524-3.459c-1.438.583-2.543 1.99-3.525 4.41l-2.3 5.668a.922.922 0 01-.854.575zm8.728-10.972l1.219 1.671 1.22-1.67h-2.44zM14.75 40H4.952a.921.921 0 010-1.843h9.798a.921.921 0 010 1.843zm18.292-6.706a.921.921 0 01-.922-.921v-.116a.921.921 0 011.843 0v.116a.921.921 0 01-.921.92zm-22.008-7.46a4.68 4.68 0 01-4.675-4.675 4.683 4.683 0 014.348-4.664h.017l.004-.001h.01a1.717 1.717 0 01.062-.004h.01a.02.02 0 00.004-.001h.02l.005-.001h.014a4.68 4.68 0 01.173-.004h.047a4.655 4.655 0 014.571 3.898 4.68 4.68 0 01-4.61 5.451zm-1.657-6.97a2.83 2.83 0 001.657 5.127 2.837 2.837 0 002.747-2.142 4.665 4.665 0 01-4.404-2.986zm1.773-.535a2.82 2.82 0 002.47 1.675 2.838 2.838 0 00-2.47-1.675zm17.702 7.291a4.737 4.737 0 01-4.731-4.73 4.737 4.737 0 015.702-4.632 4.74 4.74 0 013.76 4.631 4.737 4.737 0 01-4.73 4.732zm-1.637-7.11A2.888 2.888 0 1030 18.238c-.387.498-.87.915-1.425 1.227a.921.921 0 01-1.36-.955z"/></g><defs><clipPath id="clip0"><path fill="#fff" d="M0 0h40v40H0z"/></clipPath></defs></svg>