<svg width="40" height="40" fill="none" xmlns="http://www.w3.org/2000/svg"><path d="M28.462 40H3.13a.987.987 0 01-.987-.987V8.615c0-.545.442-.987.987-.987h25.332c.545 0 .987.442.987.987v1.945h2.497a.987.987 0 010 1.975H29.45v2.543h1.235a.987.987 0 010 1.975H29.45v2.544h2.497a.987.987 0 010 1.974H29.45v2.544h1.235a.987.987 0 010 1.974H29.45v12.924a.987.987 0 01-.987.987zM4.117 38.026h23.357V9.602H4.117v28.424zm16.404-1.84a4.61 4.61 0 01-4.605-4.605 4.61 4.61 0 014.605-4.604 4.61 4.61 0 014.605 4.604 4.61 4.61 0 01-4.605 4.605zm0-7.235c-1.45 0-2.63 1.18-2.63 2.63s1.18 2.63 2.63 2.63 2.63-1.18 2.63-2.63-1.18-2.63-2.63-2.63zm16.349 3.421h-4.517a.987.987 0 010-1.974h3.53V1.974H12.525v3.123a.987.987 0 01-1.974 0V.987c0-.545.442-.987.987-.987H36.87c.545 0 .987.442.987.987v30.398a.987.987 0 01-.987.987zm-23.89-3.341H8.17a.987.987 0 010-1.975h4.809a.987.987 0 010 1.975zm10.44-4.37H8.172a.987.987 0 010-1.975h15.25a.987.987 0 010 1.975zm0-4.37H8.172a.987.987 0 010-1.975h15.25a.987.987 0 010 1.975zm-10.44-4.37H8.17a.987.987 0 010-1.975h4.809a.987.987 0 010 1.975z" fill="#EAC57E"/><path d="M20.521 36.186a4.61 4.61 0 01-4.605-4.605 4.61 4.61 0 014.605-4.604 4.61 4.61 0 014.605 4.604 4.61 4.61 0 01-4.605 4.605zm0-7.235c-1.45 0-2.63 1.18-2.63 2.63s1.18 2.63 2.63 2.63 2.63-1.18 2.63-2.63-1.18-2.63-2.63-2.63zm-7.541.08H8.17a.987.987 0 010-1.975h4.809a.987.987 0 010 1.975zm10.441-4.37H8.171a.987.987 0 010-1.975h15.25a.987.987 0 010 1.975zm0-4.37H8.171a.987.987 0 010-1.975h15.25a.987.987 0 010 1.975zM12.98 15.92H8.17a.987.987 0 010-1.975h4.809a.987.987 0 010 1.975z" fill="#EAC57E"/></svg>