<svg width="20" height="20" fill="none" xmlns="http://www.w3.org/2000/svg"><g clip-path="url(#clip0)" fill="#EAC57E"><path d="M3.934 10.734c-.51 1.004.07 1.484 1.393 2.304 1.125.695 2.679.95 3.677 1.051L5.07 17.873c-1.145 1.098.698 2.859 1.842 1.784l3.098-2.987c1.186 1.14 2.322 2.234 3.098 2.992 1.144 1.078 2.987-.668 1.854-1.784l-3.946-3.785c1.01-.101 2.541-.37 3.653-1.05v-.001c1.323-.825 1.903-1.304 1.4-2.308-.305-.57-1.125-1.046-2.216-.222 0 0-1.475 1.129-3.852 1.129-2.379 0-3.852-1.13-3.852-1.13-1.09-.828-1.914-.347-2.215.223z"/><path d="M9.998 10.118c2.899 0 5.265-2.265 5.265-5.053 0-2.8-2.366-5.065-5.265-5.065C7.1 0 4.732 2.265 4.732 5.065c0 2.788 2.367 5.053 5.266 5.053zm0-7.552c1.424 0 2.586 1.117 2.586 2.499 0 1.37-1.162 2.487-2.586 2.487S7.412 6.435 7.412 5.065c0-1.383 1.161-2.5 2.586-2.5z"/></g><defs><clipPath id="clip0"><path fill="#fff" d="M0 0h20v20H0z"/></clipPath></defs></svg>