<svg width="443" height="320" viewBox="0 0 443 320" fill="none" xmlns="http://www.w3.org/2000/svg">
<path d="M267.499 553.949C196.033 553.949 128.849 525.119 78.3484 472.835C27.847 420.484 0 350.931 0 276.94C0 202.951 27.847 133.397 78.3484 81.1134C128.914 28.8297 196.033 0 267.499 0C338.967 0 406.151 28.8297 456.652 81.1134C507.153 133.397 535 202.951 535 276.94C535 350.931 507.153 420.484 456.652 472.768C406.151 525.119 338.967 553.949 267.499 553.949ZM267.499 16.935C203.173 16.935 138.78 42.2703 89.8373 93.0079C-8.11393 194.417 -8.11393 359.464 89.8373 460.94C187.789 562.348 347.211 562.348 445.227 460.94C543.179 359.532 543.179 194.483 445.227 93.0079C396.22 42.2703 331.892 16.935 267.499 16.935Z" fill="#EAC57E"/>
<path d="M330.705 547.264C282.677 560.588 232.403 554.845 188.145 530.805C141.473 505.487 107.099 462.774 91.4049 410.703C75.6942 358.568 80.5434 303.304 105.043 254.903C106.416 252.157 107.868 249.458 109.399 246.807C111.649 242.774 116.619 241.464 120.515 243.793C124.411 246.121 125.675 251.267 123.426 255.301C122.048 257.769 120.734 260.221 119.437 262.737C96.9801 307.093 92.5147 357.868 106.912 405.707C121.309 453.544 152.869 492.655 195.729 515.969C238.573 539.219 287.68 543.825 333.824 528.937C380.032 514.031 417.81 481.357 440.328 436.984C462.786 392.629 467.251 341.854 452.854 294.016C438.456 246.179 406.897 207.067 364.036 183.753C328.151 164.279 288.178 157.835 248.398 165.112C243.97 165.923 239.747 162.851 238.982 158.333C238.199 153.75 241.166 149.378 245.531 148.585C288.89 140.592 332.446 147.641 371.541 168.87C418.23 194.253 452.587 236.902 468.281 288.971C483.992 341.106 479.16 396.436 454.642 444.772C430.124 493.108 388.929 528.677 338.634 544.926C335.955 545.738 333.338 546.534 330.705 547.264Z" fill="#EAC57E"/>
</svg>
