<svg width="54" height="54" viewBox="0 0 54 54" fill="none" xmlns="http://www.w3.org/2000/svg">
<path d="M26.0315 53.9678C19.0767 53.9678 12.5388 51.1591 7.62435 46.0654C2.70985 40.9652 -6.10352e-05 34.189 -6.10352e-05 26.9806C-6.10352e-05 19.7723 2.70985 12.996 7.62435 7.90238C12.5451 2.8087 19.0767 0 26.0315 0C32.9863 0 39.5242 2.8087 44.4386 7.90238C49.3531 12.996 52.063 19.7723 52.063 26.9806C52.063 34.189 49.3531 40.9652 44.4386 46.0589C39.5242 51.1591 32.9863 53.9678 26.0315 53.9678ZM26.0315 1.64987C19.7715 1.64987 13.5052 4.11813 8.74239 9.06118C-0.789661 18.9408 -0.789661 35.0204 8.74239 44.9065C18.2745 54.7861 33.7885 54.7861 43.3269 44.9065C52.8589 35.027 52.8589 18.9473 43.3269 9.06118C38.5577 4.11813 32.2977 1.64987 26.0315 1.64987Z" fill="#EAC57E"/>
<path d="M32.182 53.3167C27.5082 54.6146 22.6158 54.0551 18.3089 51.7132C13.7671 49.2466 10.422 45.0852 8.89469 40.0124C7.36581 34.9331 7.83772 29.5491 10.222 24.8337C10.3555 24.5661 10.4968 24.3032 10.6459 24.0449C10.8647 23.652 11.3484 23.5245 11.7275 23.7513C12.1066 23.9782 12.2296 24.4795 12.0108 24.8724C11.8768 25.1129 11.7488 25.3517 11.6226 25.597C9.43725 29.9182 9.0027 34.8649 10.4037 39.5255C11.8048 44.186 14.876 47.9964 19.047 50.2678C23.2162 52.5328 27.995 52.9815 32.4855 51.5311C36.9822 50.0789 40.6585 46.8957 42.8499 42.5727C45.0353 38.2515 45.4698 33.3048 44.0688 28.6442C42.6677 23.9837 39.5965 20.1733 35.4256 17.902C31.9334 16.0047 28.0435 15.3769 24.1723 16.086C23.7415 16.1649 23.3306 15.8657 23.256 15.4254C23.1798 14.9789 23.4686 14.553 23.8933 14.4757C28.1128 13.697 32.3515 14.3839 36.1559 16.452C40.6994 18.9249 44.0429 23.0799 45.5701 28.1527C47.099 33.2319 46.6288 38.6223 44.2428 43.3314C41.8569 48.0405 37.848 51.5059 32.9536 53.0888C32.6929 53.168 32.4382 53.2454 32.182 53.3167Z" fill="#EAC57E"/>
</svg>