<svg width="218" height="218" fill="none" xmlns="http://www.w3.org/2000/svg"><path d="M143.5 297.5c-38.338 0-74.38-15.483-101.47-43.562C14.938 225.823 0 188.468 0 148.732c0-39.737 14.938-77.091 42.03-105.17C69.156 15.483 105.162 0 143.5 0s74.379 15.483 101.47 43.562C272.061 71.641 287 108.995 287 148.732c0 39.736-14.939 77.091-42.03 105.17-27.091 28.115-63.132 43.598-101.47 43.598zm0-288.405c-34.508 0-69.051 13.606-95.307 40.855-52.546 54.462-52.546 143.102 0 197.599 52.546 54.462 138.068 54.462 190.649 0 52.545-54.461 52.545-143.101 0-197.599C212.551 22.701 178.043 9.095 143.5 9.095z" fill="#EAC57E"/><path d="M177.405 293.91c-25.765 7.155-52.734 4.071-76.476-8.839-25.037-13.597-43.477-36.537-51.896-64.501-8.428-28-5.827-57.679 7.316-83.674a81.972 81.972 0 012.337-4.348c1.207-2.165 3.873-2.869 5.963-1.618 2.09 1.25 2.768 4.014 1.561 6.18a136.629 136.629 0 00-2.14 3.994c-12.046 23.821-14.442 51.09-6.719 76.782 7.724 25.691 24.654 46.696 47.646 59.217 22.984 12.486 49.327 14.96 74.081 6.964 24.788-8.005 45.054-25.552 57.134-49.383 12.047-23.821 14.443-51.09 6.72-76.782-7.724-25.691-24.654-46.696-47.647-59.217-19.25-10.459-40.694-13.92-62.034-10.01-2.375.435-4.64-1.215-5.051-3.642-.42-2.461 1.172-4.809 3.513-5.235 23.26-4.293 46.626-.507 67.599 10.894 25.046 13.632 43.477 36.537 51.896 64.501 8.428 27.999 5.835 57.714-7.317 83.673-13.153 25.959-35.252 45.062-62.232 53.788-1.438.436-2.842.864-4.254 1.256z" fill="#EAC57E"/></svg>