<svg width="124" height="124" viewBox="0 0 124 124" fill="none" xmlns="http://www.w3.org/2000/svg">
<path d="M124 83.918C124 65.8438 111.822 50.0524 94.648 45.2938C93.5686 20.1356 72.7669 0 47.3477 0C21.2397 0 0 21.2397 0 47.3477C0 55.8564 2.26483 64.1409 6.56555 71.4141L0.174072 94.5203L23.2812 88.1298C29.9669 92.0833 37.5088 94.3103 45.2928 94.6461C50.0505 111.821 65.8428 124 83.918 124C91.1325 124 98.1484 122.079 104.313 118.428L123.825 123.825L118.428 104.313C122.079 98.1484 124 91.1325 124 83.918ZM24.4278 80.2738L10.5948 84.1006L14.4215 70.2675L13.5493 68.9033C9.43869 62.4721 7.26562 55.0182 7.26562 47.3477C7.26562 25.2462 25.2462 7.26562 47.3477 7.26562C69.4492 7.26562 87.4297 25.2462 87.4297 47.3477C87.4297 69.4492 69.4492 87.4297 47.3477 87.4297C39.6771 87.4297 32.2242 85.2566 25.792 81.1461L24.4278 80.2738ZM113.405 113.405L103.141 110.565L101.77 111.457C96.4559 114.909 90.282 116.734 83.918 116.734C69.7122 116.734 57.2291 107.549 52.8063 94.3784C74.5597 91.8704 91.8704 74.5597 94.3793 52.8054C107.549 57.2291 116.734 69.7122 116.734 83.918C116.734 90.282 114.909 96.4559 111.457 101.77L110.565 103.141L113.405 113.405Z" fill="#EAC57E"/>
<path d="M43.7148 65.6328H50.9805V72.8984H43.7148V65.6328Z" fill="#EAC57E"/>
<path d="M54.6133 36.3281C54.6133 38.3914 53.7732 40.2958 52.2482 41.6913L43.7148 49.5018V58.3672H50.9805V52.7013L57.1534 47.0515C60.1562 44.3033 61.8789 40.3952 61.8789 36.3281C61.8789 28.3151 55.3607 21.7969 47.3477 21.7969C39.3347 21.7969 32.8164 28.3151 32.8164 36.3281H40.082C40.082 32.3216 43.3412 29.0625 47.3477 29.0625C51.3542 29.0625 54.6133 32.3216 54.6133 36.3281Z" fill="#EAC57E"/>
</svg>
