<svg width="22" height="22" viewBox="0 0 22 22" fill="none" xmlns="http://www.w3.org/2000/svg">
<g clip-path="url(#clip0)">
<path d="M20.0355 19.6429C20.53 19.6429 20.9585 19.4796 21.3228 19.1572L15.0898 12.924C14.9403 13.0311 14.7953 13.1353 14.6584 13.2343C14.1919 13.5779 13.8134 13.8461 13.5227 14.0383C13.232 14.2309 12.8453 14.4272 12.3625 14.6276C11.8795 14.8283 11.4295 14.9283 11.012 14.9283H10.9998H10.9875C10.57 14.9283 10.12 14.8283 9.63697 14.6276C9.15395 14.4272 8.76722 14.2309 8.47684 14.0383C8.18618 13.8461 7.80781 13.578 7.34113 13.2343C7.21107 13.1389 7.06684 13.0343 6.91091 12.9224L0.676758 19.1572C1.04099 19.4796 1.46977 19.6429 1.96426 19.6429H20.0355Z" fill="#EAC57E"/>
<path d="M1.24009 8.999C0.773682 8.68805 0.36008 8.33193 0 7.93079V17.4141L5.4937 11.9204C4.39465 11.1531 2.97857 10.1804 1.24009 8.999Z" fill="#EAC57E"/>
<path d="M20.7724 8.999C19.1002 10.1308 17.679 11.1052 16.5085 11.9226L22.0001 17.4143V7.93079C21.648 8.32386 21.2388 8.67974 20.7724 8.999Z" fill="#EAC57E"/>
<path d="M20.0361 2.35718H1.96489C1.33444 2.35718 0.849745 2.57007 0.510196 2.99542C0.170367 3.42096 0.000732422 3.95315 0.000732422 4.59139C0.000732422 5.10692 0.225847 5.66552 0.675877 6.26733C1.12591 6.8689 1.60477 7.34141 2.11224 7.68512C2.39044 7.88167 3.22939 8.46491 4.62908 9.43463C5.38467 9.95823 6.04176 10.4146 6.60642 10.8084C7.08773 11.1438 7.50281 11.4342 7.84551 11.6752C7.88486 11.7028 7.94673 11.7471 8.02885 11.8058C8.11732 11.8693 8.22928 11.95 8.3674 12.0497C8.63338 12.2421 8.85434 12.3976 9.03032 12.5164C9.20607 12.6352 9.419 12.7679 9.6688 12.9153C9.9184 13.0625 10.1538 13.1732 10.3748 13.2468C10.5958 13.3204 10.8004 13.3573 10.9886 13.3573H11.0008H11.013C11.2012 13.3573 11.4058 13.3204 11.6268 13.2468C11.8478 13.1732 12.083 13.0627 12.3328 12.9153C12.5823 12.7679 12.795 12.6349 12.9713 12.5164C13.1473 12.3976 13.3683 12.2421 13.6343 12.0497C13.7721 11.95 13.8841 11.8693 13.9725 11.806C14.0547 11.747 14.1165 11.7031 14.1561 11.6752C14.4231 11.4895 14.8391 11.2002 15.3985 10.8118C16.4163 10.1047 17.9152 9.0638 19.9016 7.68512C20.4991 7.26784 20.9982 6.76429 21.3993 6.17518C21.7997 5.58607 22.0005 4.96812 22.0005 4.32154C22.0005 3.78132 21.8059 3.31907 21.4174 2.93406C21.0285 2.54954 20.568 2.35718 20.0361 2.35718Z" fill="#EAC57E"/>
</g>
<defs>
<clipPath id="clip0">
<rect width="22" height="22" fill="white"/>
</clipPath>
</defs>
</svg>
