<svg width="30" height="40" viewBox="0 0 30 40" fill="none" xmlns="http://www.w3.org/2000/svg">
<path d="M26.2004 23.777L26.2035 23.7728C28.0334 21.2968 29 18.347 29 15.2344C29 7.37199 22.7039 1 15 1C7.29608 1 0.999998 7.37199 0.999998 15.2344C0.999998 18.212 1.8931 21.0575 3.58192 23.4716L3.58828 23.4802L3.64153 23.5523L3.6443 23.5579C4.6887 24.9738 6.45856 27.4032 8.373 30.031C8.54288 30.2641 8.71389 30.4989 8.88564 30.7346C11.0287 33.6761 13.287 36.7738 14.8806 38.9334C14.9158 38.9811 14.9597 38.9977 14.9822 38.9997C14.991 39.0005 14.9987 38.9997 15.0085 38.9958C15.0176 38.9923 15.0462 38.9793 15.0877 38.9342L15.0877 38.9341L15.0944 38.927C15.1296 38.8894 15.1637 38.8582 15.1935 38.8331L26.2004 23.777ZM15.3116 38.7447C15.3119 38.7446 15.3118 38.7446 15.3115 38.7449L15.3116 38.7447Z" stroke="#EAC57E" stroke-width="2"/>
<circle cx="15" cy="15" r="5" stroke="#EAC57E" stroke-width="2"/>
</svg>
