<svg width="20" height="20" viewBox="0 0 20 20" fill="none" xmlns="http://www.w3.org/2000/svg">
<g clip-path="url(#clip0)">
<path d="M3.93415 10.7342C3.42331 11.7383 4.00331 12.2183 5.32665 13.0383C6.45165 13.7333 8.00581 13.9875 9.00415 14.0892C8.59498 14.4825 10.47 12.6792 5.06998 17.8733C3.92498 18.9708 5.76831 20.7317 6.91248 19.6575L10.01 16.67C11.1958 17.8108 12.3325 18.9042 13.1075 19.6617C14.2525 20.74 16.095 18.9942 14.9625 17.8775C14.8775 17.7967 10.765 13.8517 11.0158 14.0933C12.0266 13.9917 13.5575 13.7225 14.6691 13.0425L14.6683 13.0417C15.9916 12.2175 16.5716 11.7383 16.0683 10.7342C15.7641 10.1642 14.9441 9.6875 13.8525 10.5117C13.8525 10.5117 12.3783 11.6408 10.0008 11.6408C7.62248 11.6408 6.14915 10.5117 6.14915 10.5117C5.05831 9.68333 4.23498 10.1642 3.93415 10.7342Z" fill="#EAC57E"/>
<path d="M9.99826 10.1183C12.8966 10.1183 15.2633 7.85333 15.2633 5.065C15.2633 2.265 12.8966 0 9.99826 0C7.09909 0 4.73242 2.265 4.73242 5.065C4.73242 7.85333 7.09909 10.1183 9.99826 10.1183ZM9.99826 2.56583C11.4224 2.56583 12.5841 3.68333 12.5841 5.065C12.5841 6.435 11.4224 7.55249 9.99826 7.55249C8.57409 7.55249 7.41242 6.435 7.41242 5.065C7.41159 3.6825 8.57326 2.56583 9.99826 2.56583Z" fill="#EAC57E"/>
</g>
<defs>
<clipPath id="clip0">
<rect width="20" height="20" fill="white"/>
</clipPath>
</defs>
</svg>
