<svg width="443" height="320" fill="none" xmlns="http://www.w3.org/2000/svg"><path d="M267.499 553.949c-71.466 0-138.65-28.83-189.15-81.114C27.846 420.484 0 350.931 0 276.94c0-73.989 27.847-143.543 78.348-195.827C128.914 28.83 196.033 0 267.5 0c71.468 0 138.652 28.83 189.153 81.113C507.153 133.397 535 202.951 535 276.94c0 73.991-27.847 143.544-78.348 195.828-50.501 52.351-117.685 81.181-189.153 81.181zm0-537.014c-64.326 0-128.719 25.335-177.662 76.073-97.95 101.409-97.95 266.456 0 367.932 97.952 101.408 257.374 101.408 355.39 0 97.952-101.408 97.952-266.457 0-367.932C396.22 42.27 331.892 16.935 267.499 16.935z" fill="#EAC57E"/><path d="M330.705 547.264c-48.028 13.324-98.302 7.581-142.56-16.459-46.672-25.318-81.046-68.031-96.74-120.102-15.71-52.135-10.862-107.399 13.638-155.8a153.025 153.025 0 014.356-8.096c2.25-4.033 7.22-5.343 11.116-3.014 3.896 2.328 5.16 7.474 2.911 11.508a252.337 252.337 0 00-3.989 7.436c-22.457 44.356-26.922 95.131-12.525 142.97 14.397 47.837 45.957 86.948 88.817 110.262 42.844 23.25 91.951 27.856 138.095 12.968 46.208-14.906 83.986-47.58 106.504-91.953 22.458-44.355 26.923-95.13 12.526-142.968-14.398-47.837-45.957-86.949-88.818-110.263-35.885-19.474-75.858-25.918-115.638-18.641-4.428.811-8.651-2.261-9.416-6.779-.783-4.583 2.184-8.955 6.549-9.748 43.359-7.993 86.915-.944 126.01 20.285 46.689 25.383 81.046 68.032 96.74 120.101 15.711 52.135 10.879 107.465-13.639 155.801-24.518 48.336-65.713 83.905-116.008 100.154-2.679.812-5.296 1.608-7.929 2.338z" fill="#EAC57E"/></svg>