<svg width="54" height="54" fill="none" xmlns="http://www.w3.org/2000/svg"><path d="M26.032 53.968c-6.955 0-13.493-2.809-18.408-7.903C2.71 40.965 0 34.19 0 26.981c0-7.209 2.71-13.985 7.624-19.079C12.545 2.81 19.077 0 26.032 0c6.954 0 13.492 2.809 18.407 7.902 4.914 5.094 7.624 11.87 7.624 19.079 0 7.208-2.71 13.984-7.624 19.078-4.915 5.1-11.453 7.909-18.407 7.909zm0-52.318c-6.26 0-12.527 2.468-17.29 7.411-9.532 9.88-9.532 25.96 0 35.846 9.532 9.88 25.046 9.88 34.585 0 9.532-9.88 9.532-25.96 0-35.846-4.77-4.943-11.03-7.411-17.295-7.411z" fill="#EAC57E"/><path d="M32.182 53.317c-4.674 1.298-9.566.738-13.873-1.604-4.542-2.466-7.887-6.628-9.414-11.7a20.428 20.428 0 011.75-15.968.774.774 0 011.082-.294c.38.227.503.729.284 1.121a18.765 18.765 0 00-1.607 14.653c1.4 4.661 4.472 8.471 8.643 10.743 4.17 2.265 8.948 2.713 13.439 1.263 4.496-1.452 8.172-4.635 10.364-8.958a18.764 18.764 0 001.219-13.929c-1.401-4.66-4.473-8.47-8.643-10.742-3.493-1.897-7.383-2.525-11.254-1.816a.794.794 0 01-.916-.66c-.076-.447.213-.873.637-.95 4.22-.779 8.459-.092 12.263 1.976 4.543 2.473 7.887 6.628 9.414 11.7 1.529 5.08 1.059 10.47-1.327 15.18-2.386 4.709-6.395 8.174-11.29 9.757-.26.079-.515.156-.771.228z" fill="#EAC57E"/></svg>